<svg xmlns="http://www.w3.org/2000/svg" viewBox="0 0 1000 480" width="100%" height="100%">
  <path d="M285 2.802c-48.02 10.01-97.992 35.165-146.667 73.83-20.237 16.076-97.001 92.425-108.872 108.284-10.863 14.512-22.134 38.211-26.408 55.524l-3.521 14.261 8.846 14.733c10.997 18.315 17.595 27.303 38.127 51.936 58.521 70.209 122.796 116.913 220.308 160.08 10.622 4.703 20.05 8.55 20.952 8.55 1.042 0 1.16-3.983.324-10.927-1.898-15.76-7.812-25.303-26.684-43.051-14.1-13.261-18.381-18.747-33.729-43.226-22.91-36.536-29.091-44.205-66.064-81.963-17.055-17.416-32.623-34.345-34.595-37.618-1.973-3.274-5.871-12.941-8.662-21.484l-5.076-15.531 7.761-12.451c11.447-18.366 25.288-35.196 49.689-60.421 25.093-25.94 35.524-39.349 55.277-71.057C289.712 9.532 296.712 1.217 296.4.978c-.312-.238-5.442.583-11.4 1.824m418.333-1.724c0 .368 7.188 8.714 15.974 18.546 22.056 24.683 38.011 45.878 54.687 72.647 19.629 31.51 30.066 44.93 55.32 71.133 24.678 25.607 38.364 42.244 49.659 60.365l7.773 12.471-5.203 15.63c-2.862 8.597-6.765 18.255-8.675 21.463-1.909 3.209-17.425 20.084-34.48 37.5-36.973 37.758-43.154 45.427-66.064 81.963-15.348 24.479-19.629 29.965-33.729 43.226-17.341 16.309-24.481 26.986-26.129 39.073-.555 4.073-1.351 9.093-1.769 11.155-.428 2.112.056 3.75 1.109 3.75 1.028 0 10.605-3.853 21.282-8.563 61.134-26.965 111.873-57.314 152.541-91.238 40.643-33.905 88.897-89.751 108.493-125.564l6.127-11.199-3.539-13.801c-4.408-17.186-15.612-40.613-26.171-54.719-11.871-15.859-88.635-92.208-108.872-108.284C821.293 44.561 779.027 21.198 740 9.379c-14.906-4.514-36.667-9.441-36.667-8.301m-230 66.54c-2.291.399-9.778 1.556-16.637 2.571-25.846 3.824-36.594 7.661-49.97 17.842-18.193 13.847-43.795 38.958-55.422 54.36-5.581 7.393-13.892 21.13-18.469 30.527-8.292 17.025-8.327 17.166-10.048 40.785-3.072 42.161 2.953 82.101 16.86 111.779 14.162 30.222 30.07 48.439 59.257 67.862 33.125 22.043 79.463 33.903 116.364 29.783 46.117-5.149 84.024-22.808 115.108-53.623 35.685-35.376 52.608-93.823 46.597-160.936-1.56-17.416-2.314-20.211-9.419-34.907-9.779-20.228-19.569-33.962-37.503-52.614-15.313-15.926-44.378-40.2-51.504-43.013-14.218-5.614-43.599-9.913-71.88-10.518-16.042-.343-31.042-.297-33.334.102m-183.309 40.735c-51.008 24.675-59.873 30.43-71.09 46.157-9.142 12.817-8.98 12.27-15.004 50.708-3.789 24.179-3.726 69.553.123 87.282 4.136 19.054 12.039 37.234 19.15 44.05 17.52 16.795 46.797 35.276 71.364 45.049 13.097 5.21 47.1 14.339 47.1 12.645 0-.225-4.402-9.709-9.782-21.076-13.367-28.244-23.831-56.513-30.476-82.335-5.392-20.951-5.573-22.712-5.491-53.333.078-28.982.465-33.079 4.569-48.333 2.904-10.792 9.297-26.551 18.137-44.706 13.196-27.102 13.678-28.51 14.39-42.084.406-7.724.081-13.981-.722-13.904-.802.076-19.823 9.022-42.268 19.88m376.948-6.24c.73 13.901 1.14 15.106 14.404 42.348 8.84 18.155 15.233 33.914 18.137 44.706 4.104 15.254 4.491 19.351 4.569 48.333.082 30.621-.099 32.382-5.491 53.333-6.645 25.822-17.109 54.091-30.476 82.335-5.38 11.367-9.782 20.851-9.782 21.076 0 .225 6.938-1.072 15.417-2.882 34.95-7.464 70.385-26.198 102.46-54.173 6.916-6.031 14.784-23.615 19.174-42.849 4.439-19.452 4.775-63.032.686-89.122-6.024-38.438-5.862-37.891-15.004-50.708-11.222-15.734-21.408-22.342-71.066-46.103-21.542-10.307-40.204-19.159-41.473-19.671-1.89-.762-2.171 1.65-1.555 13.377m-147.909 48.056c14.874 2.885 28.881 11.246 45.57 27.201 8.565 8.188 17.411 18.024 19.657 21.858 6.766 11.544 11.199 32.41 10.406 48.982-.603 12.613-1.498 15.99-7.548 28.467-7.859 16.21-20.359 33.438-30.651 42.249-14.629 12.521-28.236 16.325-58.164 16.258-37.338-.084-53.703-8.823-74.858-39.975-3.953-5.822-9.468-15.563-12.255-21.647-8.442-18.429-8.14-42.729.829-66.7 4.063-10.86 26.12-34.805 41.557-45.113 19.422-12.969 39.749-16.565 65.457-11.58" fill="#006d77" fill-rule="evenodd"/>
</svg>
